<svg xmlns="http://www.w3.org/2000/svg" viewBox="0 0 100 100">
  <rect width="100" height="100" rx="20" fill="#0ea5e9"/>
  <path d="M25 65c0 2.2 1 4.2 2.5 5.5V75c0 1.4 1.1 2.5 2.5 2.5h2.5c1.4 0 2.5-1.1 2.5-2.5v-2.5h30v2.5c0 1.4 1.1 2.5 2.5 2.5h2.5c1.4 0 2.5-1.1 2.5-2.5v-4.5c1.5-1.4 2.5-3.3 2.5-5.5V40c0-8.8-9-10-20-10s-20 1.3-20 10v25zm8.8 2.5c-2.1 0-3.8-1.7-3.8-3.8s1.7-3.8 3.8-3.8 3.8 1.7 3.8 3.8-1.7 3.8-3.8 3.8zm22.5 0c-2.1 0-3.8-1.7-3.8-3.8s1.7-3.8 3.8-3.8 3.8 1.7 3.8 3.8-1.7 3.8-3.8 3.8zM70 52.5H30V40h40v12.5z" fill="white"/>
</svg>
